<svg xmlns="http://www.w3.org/2000/svg" version="1.1" xmlns:xlink="http://www.w3.org/1999/xlink" xmlns:svgjs="http://svgjs.dev/svgjs" width="2000" height="1500" viewBox="0 0 2000 1500"><rect width="2000" height="1500" fill="#7902f5"></rect><g transform="matrix(0.75,0,0,0.75,249.090909090909,314.2123235883888)"><svg viewBox="0 0 396 230" data-background-color="#7902f5" preserveAspectRatio="xMidYMid meet" height="1161" width="2000" xmlns="http://www.w3.org/2000/svg" xmlns:xlink="http://www.w3.org/1999/xlink"><g id="tight-bounds" transform="matrix(1,0,0,1,0.2400000000000091,0.10900439238653803)"><svg viewBox="0 0 395.52 229.78199121522692" height="229.78199121522692" width="395.52"><g><svg viewBox="0 0 395.52 229.78199121522692" height="229.78199121522692" width="395.52"><g><svg viewBox="0 0 395.52 229.78199121522692" height="229.78199121522692" width="395.52"><g id="textblocktransform"><svg viewBox="0 0 395.52 229.78199121522692" height="229.78199121522692" width="395.52" id="textblock"><g><svg viewBox="0 0 395.52 229.78199121522692" height="229.78199121522692" width="395.52"><rect width="395.52" height="229.78199121522692" x="0" y="0" opacity="1" fill="#e1e1e3" data-fill-palette-color="tertiary"></rect><g transform="matrix(1,0,0,1,23.607599999999998,23.607599999999998)"><svg width="348.3048" viewBox="4.55 -35.8 68.3 35.8" height="182.56679121522694" data-palette-color="#7902f5"><path d="M20.85-15.4L9.1-15.4 9.1 0 4.55 0 4.55-35.8 21-35.8Q26.7-35.8 29.5-33L29.5-33Q31.95-30.55 31.95-26.2L31.95-26.2Q31.95-23.15 30.63-21.15 29.3-19.15 26.25-17.65L26.25-17.65Q28.7-16.7 29.85-15.1L29.85-15.1Q31-13.45 31.15-8.35L31.15-8.35Q31.25-4.6 31.63-3.33 32-2.05 33.3-1.15L33.3-1.15 33.3 0 27.8 0Q26.7-2.3 26.7-4.85L26.7-4.85 26.75-10.45Q26.75-11 26.3-12.15 25.85-13.3 25.45-13.8L25.45-13.8Q24.1-15.4 20.85-15.4L20.85-15.4ZM9.1-31.75L9.1-19.45 20.15-19.45Q27.2-19.45 27.2-25.6L27.2-25.6Q27.2-31.75 20.15-31.75L20.15-31.75 9.1-31.75ZM68.5-30L58.45 0 53.65 0 43.45-30 43.45 0 39.15 0 39.15-35.8 45.45-35.8 56.1-4.65 66.5-35.8 72.85-35.8 72.85 0 68.5 0 68.5-30Z" opacity="1" transform="matrix(1,0,0,1,0,0)" fill="#7902f5" class="wordmark-text-0" data-fill-palette-color="quaternary" id="text-0"></path></svg></g></svg></g></svg></g></svg></g><g></g></svg></g><defs></defs></svg><rect width="395.52" height="229.78199121522692" fill="none" stroke="none" visibility="hidden"></rect></g></svg></g></svg>